<svg role="img" viewbox="0 0 760 225" xmlns="http://www.w3.org/2000/svg"><defs><marker id="ar" markerheight="7" markerwidth="7" orient="auto-start-reverse" refx="8" refy="5" viewbox="0 0 10 10"><path d="M0,0 L10,5 L0,10 z" fill="#9aa4b2"></path></marker></defs><rect fill="#141a24" height="225" rx="14" width="760" x="0" y="0"></rect><text fill="#dfe7f1" font-size="14" font-weight="400" text-anchor="middle" x="380" y="24">Парикмахерская: каждого стригут 20 минут; ушёл сразу, если людей перед ним больше терпимости</text><line stroke="#7c8aa0" stroke-width="2" x1="70" x2="700" y1="150" y2="150"></line><line stroke="#7c8aa0" stroke-width="2" x1="87.0" x2="87.0" y1="146" y2="156"></line><text fill="#9aa4b2" font-size="12" font-weight="400" text-anchor="middle" x="87.0" y="174">60</text><line stroke="#7c8aa0" stroke-width="2" x1="155.0" x2="155.0" y1="146" y2="156"></line><text fill="#9aa4b2" font-size="12" font-weight="400" text-anchor="middle" x="155.0" y="174">80</text><line stroke="#7c8aa0" stroke-width="2" x1="223.0" x2="223.0" y1="146" y2="156"></line><text fill="#9aa4b2" font-size="12" font-weight="400" text-anchor="middle" x="223.0" y="174">100</text><line stroke="#7c8aa0" stroke-width="2" x1="291.0" x2="291.0" y1="146" y2="156"></line><text fill="#9aa4b2" font-size="12" font-weight="400" text-anchor="middle" x="291.0" y="174">120</text><line stroke="#7c8aa0" stroke-width="2" x1="359.0" x2="359.0" y1="146" y2="156"></line><text fill="#9aa4b2" font-size="12" font-weight="400" text-anchor="middle" x="359.0" y="174">140</text><line stroke="#7c8aa0" stroke-width="2" x1="427.0" x2="427.0" y1="146" y2="156"></line><text fill="#9aa4b2" font-size="12" font-weight="400" text-anchor="middle" x="427.0" y="174">160</text><rect fill="#1d4257" height="40" rx="6" stroke="#58c4dd" stroke-width="2" width="68.0" x="87.0" y="96"></rect><text fill="#dfe7f1" font-size="12" font-weight="400" text-anchor="middle" x="121.0" y="120.2">клиент 1</text><rect fill="#1d4257" height="40" rx="6" stroke="#58c4dd" stroke-width="2" width="68.0" x="291.0" y="96"></rect><text fill="#dfe7f1" font-size="12" font-weight="400" text-anchor="middle" x="325.0" y="120.2">клиент 2</text><rect fill="#27431f" height="40" rx="6" stroke="#83c167" stroke-width="2" width="68.0" x="359.0" y="96"></rect><text fill="#dfe7f1" font-size="12" font-weight="400" text-anchor="middle" x="393.0" y="120.2">клиент 4</text><line stroke="#9aa4b2" stroke-dasharray="3 3" stroke-width="1.5" x1="87.0" x2="87.0" y1="74" y2="96"></line><line stroke="#9aa4b2" stroke-dasharray="3 3" stroke-width="1.5" x1="291.0" x2="291.0" y1="74" y2="96"></line><line stroke="#9aa4b2" stroke-dasharray="3 3" stroke-width="1.5" x1="294.4" x2="294.4" y1="68" y2="96"></line><line stroke="#9aa4b2" stroke-dasharray="3 3" stroke-width="1.5" x1="297.79999999999995" x2="297.79999999999995" y1="74" y2="96"></line><line stroke="#9aa4b2" stroke-dasharray="3 3" stroke-width="1.5" x1="301.2" x2="301.2" y1="68" y2="96"></line><text fill="#fc6255" font-size="12" font-weight="400" text-anchor="middle" x="294.4" y="52">клиент 3 уходит сразу</text><text fill="#fc6255" font-size="12" font-weight="400" text-anchor="middle" x="321.2" y="40">клиент 5 уходит сразу</text><text fill="#83c167" font-size="13" font-weight="400" text-anchor="middle" x="297.79999999999995" y="205">клиент 4 приходит в 122, ждёт клиента 2 и выйдет в 140 + 20 = 160</text></svg>