<svg role="img" viewbox="0 0 760 284" xmlns="http://www.w3.org/2000/svg"><defs><marker id="ar" markerheight="7" markerwidth="7" orient="auto-start-reverse" refx="8" refy="5" viewbox="0 0 10 10"><path d="M0,0 L10,5 L0,10 z" fill="#9aa4b2"></path></marker></defs><rect fill="#141a24" height="284" rx="14" width="760" x="0" y="0"></rect><text fill="#dfe7f1" font-size="15" font-weight="400" text-anchor="middle" x="380" y="24">Сумма на отрезке [3, 6] = P[6] − P[2]</text><text fill="#9aa4b2" font-size="14" font-weight="400" text-anchor="start" x="40" y="66">a</text><rect fill="#1E2836" height="34" rx="6" stroke="#3b4a63" stroke-width="1.5" width="52" x="80" y="50"></rect><text fill="#9aa4b2" font-size="11" font-weight="400" text-anchor="middle" x="106.0" y="99">0</text><rect fill="#1E2836" height="34" rx="6" stroke="#3b4a63" stroke-width="1.5" width="52" x="136" y="50"></rect><text fill="#dfe7f1" font-size="15" font-weight="400" text-anchor="middle" x="162.0" y="72.25">1</text><text fill="#9aa4b2" font-size="11" font-weight="400" text-anchor="middle" x="162.0" y="99">1</text><rect fill="#1E2836" height="34" rx="6" stroke="#3b4a63" stroke-width="1.5" width="52" x="192" y="50"></rect><text fill="#dfe7f1" font-size="15" font-weight="400" text-anchor="middle" x="218.0" y="72.25">3</text><text fill="#9aa4b2" font-size="11" font-weight="400" text-anchor="middle" x="218.0" y="99">2</text><rect fill="#1d4257" height="34" rx="6" stroke="#58c4dd" stroke-width="2" width="52" x="248" y="50"></rect><text fill="#dfe7f1" font-size="15" font-weight="400" text-anchor="middle" x="274.0" y="72.25">2</text><text fill="#9aa4b2" font-size="11" font-weight="400" text-anchor="middle" x="274.0" y="99">3</text><rect fill="#1d4257" height="34" rx="6" stroke="#58c4dd" stroke-width="2" width="52" x="304" y="50"></rect><text fill="#dfe7f1" font-size="15" font-weight="400" text-anchor="middle" x="330.0" y="72.25">-1</text><text fill="#9aa4b2" font-size="11" font-weight="400" text-anchor="middle" x="330.0" y="99">4</text><rect fill="#1d4257" height="34" rx="6" stroke="#58c4dd" stroke-width="2" width="52" x="360" y="50"></rect><text fill="#dfe7f1" font-size="15" font-weight="400" text-anchor="middle" x="386.0" y="72.25">7</text><text fill="#9aa4b2" font-size="11" font-weight="400" text-anchor="middle" x="386.0" y="99">5</text><rect fill="#1d4257" height="34" rx="6" stroke="#58c4dd" stroke-width="2" width="52" x="416" y="50"></rect><text fill="#dfe7f1" font-size="15" font-weight="400" text-anchor="middle" x="442.0" y="72.25">4</text><text fill="#9aa4b2" font-size="11" font-weight="400" text-anchor="middle" x="442.0" y="99">6</text><rect fill="#1E2836" height="34" rx="6" stroke="#3b4a63" stroke-width="1.5" width="52" x="472" y="50"></rect><text fill="#dfe7f1" font-size="15" font-weight="400" text-anchor="middle" x="498.0" y="72.25">2</text><text fill="#9aa4b2" font-size="11" font-weight="400" text-anchor="middle" x="498.0" y="99">7</text><text fill="#9aa4b2" font-size="14" font-weight="400" text-anchor="start" x="40" y="146">P</text><rect fill="#1E2836" height="34" rx="6" stroke="#3b4a63" stroke-width="1.5" width="52" x="80" y="130"></rect><text fill="#dfe7f1" font-size="15" font-weight="400" text-anchor="middle" x="106.0" y="152.25">0</text><text fill="#9aa4b2" font-size="11" font-weight="400" text-anchor="middle" x="106.0" y="179">0</text><rect fill="#1E2836" height="34" rx="6" stroke="#3b4a63" stroke-width="1.5" width="52" x="136" y="130"></rect><text fill="#dfe7f1" font-size="15" font-weight="400" text-anchor="middle" x="162.0" y="152.25">1</text><text fill="#9aa4b2" font-size="11" font-weight="400" text-anchor="middle" x="162.0" y="179">1</text><rect fill="#53300a" height="34" rx="6" stroke="#ff8c1a" stroke-width="2" width="52" x="192" y="130"></rect><text fill="#dfe7f1" font-size="15" font-weight="400" text-anchor="middle" x="218.0" y="152.25">4</text><text fill="#9aa4b2" font-size="11" font-weight="400" text-anchor="middle" x="218.0" y="179">2</text><rect fill="#1E2836" height="34" rx="6" stroke="#3b4a63" stroke-width="1.5" width="52" x="248" y="130"></rect><text fill="#dfe7f1" font-size="15" font-weight="400" text-anchor="middle" x="274.0" y="152.25">6</text><text fill="#9aa4b2" font-size="11" font-weight="400" text-anchor="middle" x="274.0" y="179">3</text><rect fill="#1E2836" height="34" rx="6" stroke="#3b4a63" stroke-width="1.5" width="52" x="304" y="130"></rect><text fill="#dfe7f1" font-size="15" font-weight="400" text-anchor="middle" x="330.0" y="152.25">5</text><text fill="#9aa4b2" font-size="11" font-weight="400" text-anchor="middle" x="330.0" y="179">4</text><rect fill="#1E2836" height="34" rx="6" stroke="#3b4a63" stroke-width="1.5" width="52" x="360" y="130"></rect><text fill="#dfe7f1" font-size="15" font-weight="400" text-anchor="middle" x="386.0" y="152.25">12</text><text fill="#9aa4b2" font-size="11" font-weight="400" text-anchor="middle" x="386.0" y="179">5</text><rect fill="#27431f" height="34" rx="6" stroke="#83c167" stroke-width="2" width="52" x="416" y="130"></rect><text fill="#dfe7f1" font-size="15" font-weight="400" text-anchor="middle" x="442.0" y="152.25">16</text><text fill="#9aa4b2" font-size="11" font-weight="400" text-anchor="middle" x="442.0" y="179">6</text><rect fill="#1E2836" height="34" rx="6" stroke="#3b4a63" stroke-width="1.5" width="52" x="472" y="130"></rect><text fill="#dfe7f1" font-size="15" font-weight="400" text-anchor="middle" x="498.0" y="152.25">18</text><text fill="#9aa4b2" font-size="11" font-weight="400" text-anchor="middle" x="498.0" y="179">7</text><text fill="#83c167" font-size="13" font-weight="400" text-anchor="middle" x="442" y="194">P[6] = 16</text><text fill="#ff8c1a" font-size="13" font-weight="400" text-anchor="middle" x="218" y="194">P[2] = 4</text><text fill="#ffff00" font-size="15" font-weight="400" text-anchor="middle" x="380" y="238">16 − 4 = 12 = 2 + (−1) + 7 + 4</text><text fill="#9aa4b2" font-size="13" font-weight="400" text-anchor="middle" x="380" y="262">вычитаем P[L−1], а не P[L]: иначе потеряем сам a[L]</text></svg>