<svg role="img" viewbox="0 0 760 276" xmlns="http://www.w3.org/2000/svg"><defs><marker id="ar" markerheight="7" markerwidth="7" orient="auto-start-reverse" refx="8" refy="5" viewbox="0 0 10 10"><path d="M0,0 L10,5 L0,10 z" fill="#9aa4b2"></path></marker></defs><rect fill="#141a24" height="276" rx="14" width="760" x="0" y="0"></rect><text fill="#dfe7f1" font-size="15" font-weight="400" text-anchor="middle" x="380" y="24">Прогрессия a, a+d, a+2d… на [l, r]: разностный массив второго порядка</text><text fill="#9aa4b2" font-size="12" font-weight="400" text-anchor="middle" x="150" y="58">i</text><text fill="#9aa4b2" font-size="12" font-weight="400" text-anchor="middle" x="235" y="58">l</text><text fill="#9aa4b2" font-size="12" font-weight="400" text-anchor="middle" x="320" y="58">l+1</text><text fill="#9aa4b2" font-size="12" font-weight="400" text-anchor="middle" x="405" y="58">…</text><text fill="#9aa4b2" font-size="12" font-weight="400" text-anchor="middle" x="490" y="58">r</text><text fill="#9aa4b2" font-size="12" font-weight="400" text-anchor="middle" x="575" y="58">r+1</text><text fill="#9aa4b2" font-size="12" font-weight="400" text-anchor="middle" x="660" y="58">r+2</text><text fill="#9aa4b2" font-size="12" font-weight="400" text-anchor="start" x="20" y="99">d₂[i]</text><rect fill="#1E2836" height="36" rx="6" stroke="#3b4a63" stroke-width="1.5" width="76" x="112" y="75"></rect><rect fill="#1d4257" height="36" rx="6" stroke="#58c4dd" stroke-width="2" width="76" x="197" y="75"></rect><text fill="#dfe7f1" font-size="11" font-weight="400" text-anchor="middle" x="235.0" y="96.85">+a</text><rect fill="#1d4257" height="36" rx="6" stroke="#58c4dd" stroke-width="2" width="76" x="282" y="75"></rect><text fill="#dfe7f1" font-size="11" font-weight="400" text-anchor="middle" x="320.0" y="96.85">+(d−a)</text><rect fill="#1E2836" height="36" rx="6" stroke="#3b4a63" stroke-width="1.5" width="76" x="367" y="75"></rect><rect fill="#1E2836" height="36" rx="6" stroke="#3b4a63" stroke-width="1.5" width="76" x="452" y="75"></rect><rect fill="#1d4257" height="36" rx="6" stroke="#58c4dd" stroke-width="2" width="76" x="537" y="75"></rect><text fill="#dfe7f1" font-size="11" font-weight="400" text-anchor="middle" x="575.0" y="96.85">−(a+(r−l+1)d)</text><rect fill="#1d4257" height="36" rx="6" stroke="#58c4dd" stroke-width="2" width="76" x="622" y="75"></rect><text fill="#dfe7f1" font-size="11" font-weight="400" text-anchor="middle" x="660.0" y="96.85">+(a+(r−l)d)</text><text fill="#9aa4b2" font-size="12" font-weight="400" text-anchor="start" x="20" y="151">1-я сумма</text><rect fill="#27431f" height="36" rx="6" stroke="#83c167" stroke-width="2" width="76" x="112" y="127"></rect><text fill="#dfe7f1" font-size="11" font-weight="400" text-anchor="middle" x="150.0" y="148.85">0</text><rect fill="#27431f" height="36" rx="6" stroke="#83c167" stroke-width="2" width="76" x="197" y="127"></rect><text fill="#dfe7f1" font-size="11" font-weight="400" text-anchor="middle" x="235.0" y="148.85">a</text><rect fill="#27431f" height="36" rx="6" stroke="#83c167" stroke-width="2" width="76" x="282" y="127"></rect><text fill="#dfe7f1" font-size="11" font-weight="400" text-anchor="middle" x="320.0" y="148.85">d</text><rect fill="#27431f" height="36" rx="6" stroke="#83c167" stroke-width="2" width="76" x="367" y="127"></rect><text fill="#dfe7f1" font-size="11" font-weight="400" text-anchor="middle" x="405.0" y="148.85">d</text><rect fill="#27431f" height="36" rx="6" stroke="#83c167" stroke-width="2" width="76" x="452" y="127"></rect><text fill="#dfe7f1" font-size="11" font-weight="400" text-anchor="middle" x="490.0" y="148.85">d</text><rect fill="#27431f" height="36" rx="6" stroke="#83c167" stroke-width="2" width="76" x="537" y="127"></rect><text fill="#dfe7f1" font-size="11" font-weight="400" text-anchor="middle" x="575.0" y="148.85">−(a+(r−l)d)</text><rect fill="#27431f" height="36" rx="6" stroke="#83c167" stroke-width="2" width="76" x="622" y="127"></rect><text fill="#dfe7f1" font-size="11" font-weight="400" text-anchor="middle" x="660.0" y="148.85">0</text><text fill="#9aa4b2" font-size="12" font-weight="400" text-anchor="start" x="20" y="203">2-я сумма</text><rect fill="#53300a" height="36" rx="6" stroke="#ff8c1a" stroke-width="2" width="76" x="112" y="179"></rect><text fill="#dfe7f1" font-size="11" font-weight="400" text-anchor="middle" x="150.0" y="200.85">0</text><rect fill="#53300a" height="36" rx="6" stroke="#ff8c1a" stroke-width="2" width="76" x="197" y="179"></rect><text fill="#dfe7f1" font-size="11" font-weight="400" text-anchor="middle" x="235.0" y="200.85">a</text><rect fill="#53300a" height="36" rx="6" stroke="#ff8c1a" stroke-width="2" width="76" x="282" y="179"></rect><text fill="#dfe7f1" font-size="11" font-weight="400" text-anchor="middle" x="320.0" y="200.85">a+d</text><rect fill="#53300a" height="36" rx="6" stroke="#ff8c1a" stroke-width="2" width="76" x="367" y="179"></rect><text fill="#dfe7f1" font-size="11" font-weight="400" text-anchor="middle" x="405.0" y="200.85">…</text><rect fill="#53300a" height="36" rx="6" stroke="#ff8c1a" stroke-width="2" width="76" x="452" y="179"></rect><text fill="#dfe7f1" font-size="11" font-weight="400" text-anchor="middle" x="490.0" y="200.85">a+(r−l)d</text><rect fill="#53300a" height="36" rx="6" stroke="#ff8c1a" stroke-width="2" width="76" x="537" y="179"></rect><text fill="#dfe7f1" font-size="11" font-weight="400" text-anchor="middle" x="575.0" y="200.85">0</text><rect fill="#53300a" height="36" rx="6" stroke="#ff8c1a" stroke-width="2" width="76" x="622" y="179"></rect><text fill="#dfe7f1" font-size="11" font-weight="400" text-anchor="middle" x="660.0" y="200.85">0</text><text fill="#9aa4b2" font-size="13" font-weight="400" text-anchor="middle" x="380" y="258">четыре точечных изменения вместо r − l + 1: два префиксных прохода в конце восстанавливают массив</text></svg>