<svg width="760" height="246" viewBox="0 0 760 246" role="img" xmlns="http://www.w3.org/2000/svg"><defs><marker id="ar" viewBox="0 0 10 10" refX="8" refY="5" markerWidth="7" markerHeight="7" orient="auto-start-reverse"><path d="M0,0 L10,5 L0,10 z" fill="#9aa4b2"/></marker></defs><rect x="0" y="0" width="760" height="246" rx="14" fill="#141a24"/><text x="380" y="24" text-anchor="middle" font-size="15" font-weight="400" fill="#dfe7f1">Дек: четыре быстрые операции по краям + доступ по индексу</text><rect x="200" y="90" width="64" height="44" rx="6" fill="#1d4257" stroke="#58c4dd" stroke-width="2"/><text x="232.0" y="117.95" text-anchor="middle" font-size="17" font-weight="400" fill="#dfe7f1">7</text><text x="232" y="154" text-anchor="middle" font-size="12" font-weight="400" fill="#9aa4b2">d[0]</text><rect x="270" y="90" width="64" height="44" rx="6" fill="#1E2836" stroke="#3b4a63" stroke-width="1.5"/><text x="302.0" y="117.95" text-anchor="middle" font-size="17" font-weight="400" fill="#dfe7f1">2</text><text x="302" y="154" text-anchor="middle" font-size="12" font-weight="400" fill="#9aa4b2">d[1]</text><rect x="340" y="90" width="64" height="44" rx="6" fill="#1E2836" stroke="#3b4a63" stroke-width="1.5"/><text x="372.0" y="117.95" text-anchor="middle" font-size="17" font-weight="400" fill="#dfe7f1">9</text><text x="372" y="154" text-anchor="middle" font-size="12" font-weight="400" fill="#9aa4b2">d[2]</text><rect x="410" y="90" width="64" height="44" rx="6" fill="#1E2836" stroke="#3b4a63" stroke-width="1.5"/><text x="442.0" y="117.95" text-anchor="middle" font-size="17" font-weight="400" fill="#dfe7f1">4</text><text x="442" y="154" text-anchor="middle" font-size="12" font-weight="400" fill="#9aa4b2">d[3]</text><rect x="480" y="90" width="64" height="44" rx="6" fill="#1d4257" stroke="#58c4dd" stroke-width="2"/><text x="512.0" y="117.95" text-anchor="middle" font-size="17" font-weight="400" fill="#dfe7f1">6</text><text x="512" y="154" text-anchor="middle" font-size="12" font-weight="400" fill="#9aa4b2">d[4]</text><line x1="180" y1="80" x2="180" y2="60" stroke="#83c167" stroke-width="3" marker-end="url(#ar)"/><text x="110" y="56" text-anchor="middle" font-size="13" font-weight="400" fill="#83c167">push_front</text><text x="110" y="76" text-anchor="middle" font-size="13" font-weight="400" fill="#fc6255">pop_front</text><line x1="570" y1="80" x2="570" y2="60" stroke="#83c167" stroke-width="3" marker-end="url(#ar)"/><text x="640" y="56" text-anchor="middle" font-size="13" font-weight="400" fill="#83c167">push_back</text><text x="640" y="76" text-anchor="middle" font-size="13" font-weight="400" fill="#fc6255">pop_back</text><text x="380" y="200" text-anchor="middle" font-size="14" font-weight="400" fill="#ffff00">front() = d[0],  back() = d[size−1],  d[i] — за O(1)</text><text x="380" y="224" text-anchor="middle" font-size="13" font-weight="400" fill="#9aa4b2">вставка в середину всё ещё дорогая</text></svg>