<svg width="760" height="286" viewBox="0 0 760 286" role="img" xmlns="http://www.w3.org/2000/svg"><defs><marker id="ar" viewBox="0 0 10 10" refX="8" refY="5" markerWidth="7" markerHeight="7" orient="auto-start-reverse"><path d="M0,0 L10,5 L0,10 z" fill="#9aa4b2"/></marker></defs><rect x="0" y="0" width="760" height="286" rx="14" fill="#141a24"/><text x="380" y="24" text-anchor="middle" font-size="15" font-weight="400" fill="#dfe7f1">Два указателя: отрезок [l, r) и его сумма; ищем сумму S = 9</text><rect x="70" y="60" width="66" height="40" rx="6" fill="#1E2836" stroke="#3b4a63" stroke-width="1.5"/><text x="103.0" y="85.95" text-anchor="middle" font-size="17" font-weight="400" fill="#dfe7f1">2</text><text x="103" y="118" text-anchor="middle" font-size="11" font-weight="400" fill="#9aa4b2">0</text><rect x="146" y="60" width="66" height="40" rx="6" fill="#1E2836" stroke="#3b4a63" stroke-width="1.5"/><text x="179.0" y="85.95" text-anchor="middle" font-size="17" font-weight="400" fill="#dfe7f1">1</text><text x="179" y="118" text-anchor="middle" font-size="11" font-weight="400" fill="#9aa4b2">1</text><rect x="222" y="60" width="66" height="40" rx="6" fill="#1E2836" stroke="#3b4a63" stroke-width="1.5"/><text x="255.0" y="85.95" text-anchor="middle" font-size="17" font-weight="400" fill="#dfe7f1">3</text><text x="255" y="118" text-anchor="middle" font-size="11" font-weight="400" fill="#9aa4b2">2</text><rect x="298" y="60" width="66" height="40" rx="6" fill="#4d4d00" stroke="#ffff00" stroke-width="2"/><text x="331.0" y="85.95" text-anchor="middle" font-size="17" font-weight="400" fill="#dfe7f1">4</text><text x="331" y="118" text-anchor="middle" font-size="11" font-weight="400" fill="#9aa4b2">3</text><rect x="374" y="60" width="66" height="40" rx="6" fill="#4d4d00" stroke="#ffff00" stroke-width="2"/><text x="407.0" y="85.95" text-anchor="middle" font-size="17" font-weight="400" fill="#dfe7f1">2</text><text x="407" y="118" text-anchor="middle" font-size="11" font-weight="400" fill="#9aa4b2">4</text><rect x="450" y="60" width="66" height="40" rx="6" fill="#1E2836" stroke="#3b4a63" stroke-width="1.5"/><text x="483.0" y="85.95" text-anchor="middle" font-size="17" font-weight="400" fill="#dfe7f1">5</text><text x="483" y="118" text-anchor="middle" font-size="11" font-weight="400" fill="#9aa4b2">5</text><rect x="526" y="60" width="66" height="40" rx="6" fill="#1E2836" stroke="#3b4a63" stroke-width="1.5"/><text x="559.0" y="85.95" text-anchor="middle" font-size="17" font-weight="400" fill="#dfe7f1">1</text><text x="559" y="118" text-anchor="middle" font-size="11" font-weight="400" fill="#9aa4b2">6</text><rect x="602" y="60" width="66" height="40" rx="6" fill="#1E2836" stroke="#3b4a63" stroke-width="1.5"/><text x="635.0" y="85.95" text-anchor="middle" font-size="17" font-weight="400" fill="#dfe7f1">3</text><text x="635" y="118" text-anchor="middle" font-size="11" font-weight="400" fill="#9aa4b2">7</text><line x1="295" y1="134" x2="440" y2="134" stroke="#ffff00" stroke-width="3"/><text x="368.0" y="154" text-anchor="middle" font-size="13" font-weight="400" fill="#ffff00">[l, r) — сумма 6 &lt; 9</text><line x1="298" y1="190" x2="298" y2="160" stroke="#83c167" stroke-width="2" marker-end="url(#ar)"/><text x="304" y="208" text-anchor="middle" font-size="14" font-weight="400" fill="#83c167">l</text><line x1="440" y1="190" x2="440" y2="160" stroke="#ff8c1a" stroke-width="2" marker-end="url(#ar)"/><text x="440" y="208" text-anchor="middle" font-size="14" font-weight="400" fill="#ff8c1a">r</text><text x="380" y="240" text-anchor="middle" font-size="14" font-weight="400" fill="#dfe7f1">cur &lt; S → сдвигаем r вправо;  cur &gt; S → сдвигаем l вправо;  cur = S → нашли</text><text x="380" y="264" text-anchor="middle" font-size="13" font-weight="400" fill="#9aa4b2">каждый указатель только растёт — всего ≤ 2n шагов</text></svg>