<svg role="img" viewbox="0 0 760 308" xmlns="http://www.w3.org/2000/svg"><defs><marker id="ar" markerheight="7" markerwidth="7" orient="auto-start-reverse" refx="8" refy="5" viewbox="0 0 10 10"><path d="M0,0 L10,5 L0,10 z" fill="#9aa4b2"></path></marker></defs><rect fill="#141a24" height="308" rx="14" width="760" x="0" y="0"></rect><text fill="#dfe7f1" font-size="15" font-weight="400" text-anchor="middle" x="380" y="22">Σ ⌊(3x+1)/5⌋ по x = 1..8: число целых точек под прямой</text><line stroke="#7c8aa0" stroke-width="1.5" x1="60" x2="690" y1="250" y2="250"></line><line stroke="#7c8aa0" stroke-width="1.5" x1="60" x2="60" y1="250" y2="-20"></line><line stroke="#ffff00" stroke-width="2" x1="60" x2="690" y1="240.0" y2="-30.0"></line><text fill="#9aa4b2" font-size="12" font-weight="400" text-anchor="middle" x="130" y="268">1</text><text fill="#9aa4b2" font-size="12" font-weight="400" text-anchor="middle" x="200" y="268">2</text><circle cx="200" cy="200" fill="#27431f" r="8" stroke="#83c167" stroke-width="2"></circle><text fill="#9aa4b2" font-size="11" font-weight="400" text-anchor="start" x="220" y="204">1</text><text fill="#9aa4b2" font-size="12" font-weight="400" text-anchor="middle" x="270" y="268">3</text><circle cx="270" cy="200" fill="#27431f" r="8" stroke="#83c167" stroke-width="2"></circle><circle cx="270" cy="150" fill="#27431f" r="8" stroke="#83c167" stroke-width="2"></circle><text fill="#9aa4b2" font-size="11" font-weight="400" text-anchor="start" x="290" y="154">2</text><text fill="#9aa4b2" font-size="12" font-weight="400" text-anchor="middle" x="340" y="268">4</text><circle cx="340" cy="200" fill="#27431f" r="8" stroke="#83c167" stroke-width="2"></circle><circle cx="340" cy="150" fill="#27431f" r="8" stroke="#83c167" stroke-width="2"></circle><text fill="#9aa4b2" font-size="11" font-weight="400" text-anchor="start" x="360" y="154">2</text><text fill="#9aa4b2" font-size="12" font-weight="400" text-anchor="middle" x="410" y="268">5</text><circle cx="410" cy="200" fill="#27431f" r="8" stroke="#83c167" stroke-width="2"></circle><circle cx="410" cy="150" fill="#27431f" r="8" stroke="#83c167" stroke-width="2"></circle><circle cx="410" cy="100" fill="#27431f" r="8" stroke="#83c167" stroke-width="2"></circle><text fill="#9aa4b2" font-size="11" font-weight="400" text-anchor="start" x="430" y="104">3</text><text fill="#9aa4b2" font-size="12" font-weight="400" text-anchor="middle" x="480" y="268">6</text><circle cx="480" cy="200" fill="#27431f" r="8" stroke="#83c167" stroke-width="2"></circle><circle cx="480" cy="150" fill="#27431f" r="8" stroke="#83c167" stroke-width="2"></circle><circle cx="480" cy="100" fill="#27431f" r="8" stroke="#83c167" stroke-width="2"></circle><text fill="#9aa4b2" font-size="11" font-weight="400" text-anchor="start" x="500" y="104">3</text><text fill="#9aa4b2" font-size="12" font-weight="400" text-anchor="middle" x="550" y="268">7</text><circle cx="550" cy="200" fill="#27431f" r="8" stroke="#83c167" stroke-width="2"></circle><circle cx="550" cy="150" fill="#27431f" r="8" stroke="#83c167" stroke-width="2"></circle><circle cx="550" cy="100" fill="#27431f" r="8" stroke="#83c167" stroke-width="2"></circle><circle cx="550" cy="50" fill="#27431f" r="8" stroke="#83c167" stroke-width="2"></circle><text fill="#9aa4b2" font-size="11" font-weight="400" text-anchor="start" x="570" y="54">4</text><text fill="#9aa4b2" font-size="12" font-weight="400" text-anchor="middle" x="620" y="268">8</text><circle cx="620" cy="200" fill="#27431f" r="8" stroke="#83c167" stroke-width="2"></circle><circle cx="620" cy="150" fill="#27431f" r="8" stroke="#83c167" stroke-width="2"></circle><circle cx="620" cy="100" fill="#27431f" r="8" stroke="#83c167" stroke-width="2"></circle><circle cx="620" cy="50" fill="#27431f" r="8" stroke="#83c167" stroke-width="2"></circle><circle cx="620" cy="0" fill="#27431f" r="8" stroke="#83c167" stroke-width="2"></circle><text fill="#9aa4b2" font-size="11" font-weight="400" text-anchor="start" x="640" y="4">5</text><text fill="#ffff00" font-size="13" font-weight="400" text-anchor="middle" x="380" y="292">сумма = 20;  точки под прямой считаются построчно (по x) или по столбцам (по y) — это и есть замена a ↔ c</text></svg>