<svg role="img" viewbox="0 0 760 360" xmlns="http://www.w3.org/2000/svg"><defs><marker id="ar" markerheight="7" markerwidth="7" orient="auto-start-reverse" refx="8" refy="5" viewbox="0 0 10 10"><path d="M0,0 L10,5 L0,10 z" fill="#9aa4b2"></path></marker></defs><rect fill="#141a24" height="360" rx="14" width="760" x="0" y="0"></rect><text fill="#dfe7f1" font-size="15" font-weight="400" text-anchor="middle" x="380" y="24">Дерево Штерна—Броко: у вершины с границами a/b и c/d значение (a+c)/(b+d)</text><line stroke="#83c167" stroke-width="3" x1="380.0" x2="210.0" y1="60" y2="130"></line><line stroke="#3b4a63" stroke-width="2" x1="380.0" x2="550.0" y1="60" y2="130"></line><line stroke="#3b4a63" stroke-width="2" x1="210.0" x2="125.0" y1="130" y2="200"></line><line stroke="#83c167" stroke-width="3" x1="210.0" x2="295.0" y1="130" y2="200"></line><line stroke="#3b4a63" stroke-width="2" x1="550.0" x2="465.0" y1="130" y2="200"></line><line stroke="#3b4a63" stroke-width="2" x1="550.0" x2="635.0" y1="130" y2="200"></line><line stroke="#3b4a63" stroke-width="2" x1="125.0" x2="82.5" y1="200" y2="270"></line><line stroke="#3b4a63" stroke-width="2" x1="125.0" x2="167.5" y1="200" y2="270"></line><line stroke="#83c167" stroke-width="3" x1="295.0" x2="252.5" y1="200" y2="270"></line><line stroke="#3b4a63" stroke-width="2" x1="295.0" x2="337.5" y1="200" y2="270"></line><line stroke="#3b4a63" stroke-width="2" x1="465.0" x2="422.5" y1="200" y2="270"></line><line stroke="#3b4a63" stroke-width="2" x1="465.0" x2="507.5" y1="200" y2="270"></line><line stroke="#3b4a63" stroke-width="2" x1="635.0" x2="592.5" y1="200" y2="270"></line><line stroke="#3b4a63" stroke-width="2" x1="635.0" x2="677.5" y1="200" y2="270"></line><circle cx="380.0" cy="60" fill="#27431f" r="24" stroke="#83c167" stroke-width="2"></circle><text fill="#dfe7f1" font-size="13" font-weight="400" text-anchor="middle" x="380.0" y="65">1/1</text><circle cx="210.0" cy="130" fill="#27431f" r="24" stroke="#83c167" stroke-width="2"></circle><text fill="#dfe7f1" font-size="13" font-weight="400" text-anchor="middle" x="210.0" y="135">1/2</text><circle cx="550.0" cy="130" fill="#1E2836" r="24" stroke="#3b4a63" stroke-width="2"></circle><text fill="#dfe7f1" font-size="13" font-weight="400" text-anchor="middle" x="550.0" y="135">2/1</text><circle cx="125.0" cy="200" fill="#1E2836" r="24" stroke="#3b4a63" stroke-width="2"></circle><text fill="#dfe7f1" font-size="13" font-weight="400" text-anchor="middle" x="125.0" y="205">1/3</text><circle cx="295.0" cy="200" fill="#27431f" r="24" stroke="#83c167" stroke-width="2"></circle><text fill="#dfe7f1" font-size="13" font-weight="400" text-anchor="middle" x="295.0" y="205">2/3</text><circle cx="465.0" cy="200" fill="#1E2836" r="24" stroke="#3b4a63" stroke-width="2"></circle><text fill="#dfe7f1" font-size="13" font-weight="400" text-anchor="middle" x="465.0" y="205">3/2</text><circle cx="635.0" cy="200" fill="#1E2836" r="24" stroke="#3b4a63" stroke-width="2"></circle><text fill="#dfe7f1" font-size="13" font-weight="400" text-anchor="middle" x="635.0" y="205">3/1</text><circle cx="82.5" cy="270" fill="#1E2836" r="24" stroke="#3b4a63" stroke-width="2"></circle><text fill="#dfe7f1" font-size="13" font-weight="400" text-anchor="middle" x="82.5" y="275">1/4</text><circle cx="167.5" cy="270" fill="#1E2836" r="24" stroke="#3b4a63" stroke-width="2"></circle><text fill="#dfe7f1" font-size="13" font-weight="400" text-anchor="middle" x="167.5" y="275">2/5</text><circle cx="252.5" cy="270" fill="#27431f" r="24" stroke="#83c167" stroke-width="2"></circle><text fill="#dfe7f1" font-size="13" font-weight="400" text-anchor="middle" x="252.5" y="275">3/5</text><circle cx="337.5" cy="270" fill="#1E2836" r="24" stroke="#3b4a63" stroke-width="2"></circle><text fill="#dfe7f1" font-size="13" font-weight="400" text-anchor="middle" x="337.5" y="275">3/4</text><circle cx="422.5" cy="270" fill="#1E2836" r="24" stroke="#3b4a63" stroke-width="2"></circle><text fill="#dfe7f1" font-size="13" font-weight="400" text-anchor="middle" x="422.5" y="275">4/3</text><circle cx="507.5" cy="270" fill="#1E2836" r="24" stroke="#3b4a63" stroke-width="2"></circle><text fill="#dfe7f1" font-size="13" font-weight="400" text-anchor="middle" x="507.5" y="275">5/3</text><circle cx="592.5" cy="270" fill="#1E2836" r="24" stroke="#3b4a63" stroke-width="2"></circle><text fill="#dfe7f1" font-size="13" font-weight="400" text-anchor="middle" x="592.5" y="275">5/2</text><circle cx="677.5" cy="270" fill="#1E2836" r="24" stroke="#3b4a63" stroke-width="2"></circle><text fill="#dfe7f1" font-size="13" font-weight="400" text-anchor="middle" x="677.5" y="275">4/1</text><text fill="#ffff00" font-size="13" font-weight="400" text-anchor="middle" x="380" y="318">путь к 7/13:  1/1 → 1/2 → 2/3 → 3/5 → 4/7 → 5/9 → 6/11 → 7/13 ,  то есть  L R L L L L L</text><text fill="#9aa4b2" font-size="13" font-weight="400" text-anchor="middle" x="380" y="340">длины серий  1, 1, 5  =  q₁, q₂, q₃ − 1  из алгоритма Евклида для (13, 7)</text></svg>